<?xml version="1.0" standalone="no"?>
<!DOCTYPE svg PUBLIC "-//W3C//DTD SVG 20010904//EN"
 "http://www.w3.org/TR/2001/REC-SVG-20010904/DTD/svg10.dtd">
<svg version="1.0" xmlns="http://www.w3.org/2000/svg"
 width="225.000000pt" height="225.000000pt" viewBox="0 0 225.000000 225.000000"
 preserveAspectRatio="xMidYMid meet">

<g transform="translate(0.000000,225.000000) scale(0.100000,-0.100000)"
fill="#000000" stroke="none">
<path d="M0 1125 l0 -1125 1125 0 1125 0 0 1125 0 1125 -1125 0 -1125 0 0
-1125z m1850 500 c0 -63 -60 -147 -125 -176 -37 -17 -76 -19 -532 -19 l-493 0
0 23 c0 68 81 164 156 187 16 4 246 9 512 9 l482 1 0 -25z m-313 -326 c-7 -53
-47 -112 -99 -146 l-41 -28 -220 -3 c-194 -3 -218 -5 -213 -19 36 -92 31 -206
-11 -292 -35 -73 -109 -145 -181 -179 -49 -23 -70 -27 -152 -27 -82 0 -103 4
-150 26 -80 38 -144 100 -180 172 -100 204 1 447 215 516 56 19 93 20 549 20
l489 1 -6 -41z m-394 -410 c17 -31 18 -31 33 -13 14 18 15 18 4 -3 -14 -30
-23 -29 -41 4 l-14 26 -6 -39 -6 -39 -2 48 c-1 55 7 59 32 16z m66 -16 l-2
-48 -6 40 c-7 38 -5 55 5 55 2 0 3 -21 3 -47z m167 0 c9 -13 14 -10 32 18 12
19 22 30 22 26 0 -5 -10 -23 -22 -39 l-21 -31 -18 22 -18 22 -4 -33 c-3 -23
-4 -18 -5 17 -1 42 1 47 11 32 7 -10 17 -26 23 -34z m324 2 c0 -38 14 -47 23
-15 3 12 14 20 27 20 13 0 24 -8 27 -20 3 -11 12 -20 19 -20 8 0 14 9 14 20 0
11 5 20 10 20 6 0 10 -9 10 -20 0 -11 5 -20 10 -20 6 0 10 9 10 20 0 11 5 20
10 20 6 0 10 -9 10 -20 0 -11 4 -20 9 -20 12 0 23 29 15 41 -3 5 0 9 5 9 6 0
11 -11 11 -25 0 -31 7 -31 30 -2 15 18 22 20 37 11 43 -26 10 -73 -39 -56 -13
5 -41 8 -63 7 -107 -7 -132 -8 -162 -6 -32 1 -33 2 -33 46 0 25 5 45 10 45 6
0 10 -16 10 -35z m-463 -27 c-2 -13 -4 -5 -4 17 -1 22 1 32 4 23 2 -10 2 -28
0 -40z m33 42 c-13 -8 -13 -9 0 -14 8 -2 23 -7 33 -10 9 -3 17 -12 17 -20 0
-18 -38 -32 -51 -19 -6 6 -1 9 12 9 12 -1 24 5 26 12 3 7 -5 12 -21 12 -13 0
-28 5 -31 10 -8 13 3 30 18 30 7 0 6 -4 -3 -10z m247 -10 c4 -12 3 -12 -5 -2
-14 20 -46 10 -50 -14 -4 -25 24 -40 44 -23 9 7 14 8 14 1 0 -16 -30 -23 -51
-12 -20 11 -23 27 -13 55 8 20 56 16 61 -5z m51 6 c-7 -8 -15 -12 -17 -11 -5
6 10 25 20 25 5 0 4 -6 -3 -14z m92 -41 c0 -33 -4 -45 -15 -45 -8 0 -15 5 -15
10 0 6 5 10 10 10 6 0 10 16 10 35 0 19 2 35 5 35 3 0 5 -20 5 -45z"/>
<path d="M513 1239 c-158 -61 -229 -258 -147 -408 31 -58 65 -90 128 -124 59
-31 193 -31 252 0 101 54 154 134 161 242 15 214 -194 367 -394 290z m202 -70
c86 -40 129 -116 123 -215 -5 -74 -37 -130 -100 -171 -36 -24 -51 -28 -118
-28 -67 0 -82 4 -118 28 -63 41 -95 97 -100 173 -3 50 0 72 17 107 54 112 184
159 296 106z"/>
<path d="M545 1141 c-98 -45 -139 -151 -96 -246 68 -150 274 -151 342 -1 57
125 -40 267 -181 266 -14 0 -43 -9 -65 -19z m65 -46 c0 -73 -18 -81 -70 -30
-36 35 -38 40 -22 50 16 12 69 33 85 34 4 1 7 -24 7 -54z m92 29 c40 -21 40
-28 4 -63 -50 -49 -70 -40 -74 32 -3 57 -2 58 20 52 13 -4 35 -14 50 -21z
m-173 -78 c47 -48 37 -66 -34 -66 -55 0 -55 0 -49 28 7 32 31 72 42 72 5 0 23
-15 41 -34z m245 12 c7 -13 16 -35 20 -50 6 -28 6 -28 -49 -28 -71 0 -81 18
-34 66 39 40 44 41 63 12z m-109 -62 c13 -19 14 -29 5 -45 -24 -46 -79 -48
-99 -4 -27 59 59 103 94 49z m-107 -60 c3 -16 -52 -86 -68 -86 -9 0 -37 52
-44 83 l-7 28 58 -3 c47 -2 58 -6 61 -22z m234 -6 c-4 -26 -32 -81 -42 -79 -3
0 -20 18 -39 40 -46 53 -37 71 31 67 50 -3 53 -4 50 -28z m-184 -83 l3 -58
-28 7 c-28 7 -44 14 -73 33 -12 8 -9 16 20 46 22 22 42 35 55 33 17 -3 20 -12
23 -61z m96 24 l38 -38 -44 -22 c-64 -30 -68 -29 -68 32 0 81 16 87 74 28z"/>
<path d="M594 986 c-10 -26 4 -48 28 -44 17 2 23 10 23 28 0 18 -6 26 -23 28
-13 2 -25 -3 -28 -12z"/>
<path d="M1735 851 c-7 -12 12 -24 25 -16 11 7 4 25 -10 25 -5 0 -11 -4 -15
-9z"/>
<path d="M1950 845 c0 -8 7 -15 15 -15 8 0 15 7 15 15 0 8 -7 15 -15 15 -8 0
-15 -7 -15 -15z"/>
</g>
</svg>
